<svg width="246" height="30" viewBox="0 0 246 30" fill="none" xmlns="http://www.w3.org/2000/svg">
<path d="M43.898 8.45V17.718H45.074V8.45H43.898ZM36.94 19.86V20.812H45.452V19.86H36.94ZM36.94 16.864V20.308H38.088V16.864H36.94ZM37.99 9.136V10.424C37.99 12.384 36.73 14.232 34.826 14.974L35.428 15.912C37.556 15.044 38.956 12.888 38.956 10.424V9.136H37.99ZM38.2 9.136V10.424C38.2 12.832 39.6 14.862 41.7 15.674L42.316 14.736C40.426 14.05 39.152 12.328 39.152 10.424V9.136H38.2ZM54.0609 11.418V12.384H57.2529V11.418H54.0609ZM50.7429 9.206V10.76C50.7429 12.692 49.4689 14.484 47.5929 15.184L48.1949 16.108C50.3089 15.254 51.6809 13.21 51.6809 10.76V9.206H50.7429ZM50.9669 9.206V10.802C50.9669 13.056 52.3249 15.016 54.3409 15.8L54.9709 14.904C53.1369 14.232 51.9049 12.566 51.9049 10.802V9.206H50.9669ZM56.8189 8.45V17.914H57.9809V8.45H56.8189ZM49.8469 19.86V20.812H58.2889V19.86H49.8469ZM49.8469 16.864V20.308H51.0089V16.864H49.8469ZM69.1098 8.45V17.942H70.2718V8.45H69.1098ZM69.9078 12.594V13.574H72.1478V12.594H69.9078ZM60.4858 9.976V10.914H67.9618V9.976H60.4858ZM64.2238 11.614C62.4178 11.614 61.1858 12.552 61.1858 13.98C61.1858 15.394 62.4178 16.332 64.2238 16.332C66.0158 16.332 67.2478 15.394 67.2478 13.98C67.2478 12.552 66.0158 11.614 64.2238 11.614ZM64.2238 12.524C65.3578 12.524 66.1418 13.098 66.1418 13.98C66.1418 14.848 65.3578 15.422 64.2238 15.422C63.0758 15.422 62.2918 14.848 62.2918 13.98C62.2918 13.098 63.0758 12.524 64.2238 12.524ZM63.6358 8.436V10.466H64.7978V8.436H63.6358ZM62.3898 19.86V20.812H70.8458V19.86H62.3898ZM62.3898 17.186V20.266H63.5518V17.186H62.3898ZM80.3682 9.528V11.796C80.3682 14.106 78.9262 16.542 77.0922 17.466L77.8062 18.39C79.8082 17.326 81.3202 14.596 81.3202 11.796V9.528H80.3682ZM80.5782 9.528V11.796C80.5782 14.512 82.0482 17.102 84.0082 18.152L84.7222 17.228C82.9302 16.332 81.5162 14.022 81.5162 11.796V9.528H80.5782ZM85.8282 8.436V21.092H87.0042V8.436H85.8282ZM86.7242 13.56V14.54H89.0762V13.56H86.7242ZM93.3451 15.856V18.964H94.4931V15.856H93.3451ZM97.3911 15.828V18.95H98.5251V15.828H97.3911ZM90.1531 18.572V19.538H101.619V18.572H90.1531ZM91.5391 9.374V10.312H99.0571V12.272H91.5811V15.744H92.7291V13.196H100.205V9.374H91.5391ZM91.5811 15.226V16.178H100.499V15.226H91.5811ZM110.556 20H112.101V19.9932L106.598 14.1211C106.301 13.8021 106.064 13.5332 105.887 13.3145C105.714 13.0911 105.588 12.8929 105.511 12.7197C105.433 12.542 105.395 12.3643 105.395 12.1865V12.1729C105.395 11.9176 105.451 11.6943 105.565 11.5029C105.684 11.307 105.843 11.1543 106.044 11.0449C106.249 10.9355 106.481 10.8809 106.741 10.8809C107.01 10.8809 107.245 10.9355 107.445 11.0449C107.65 11.1497 107.81 11.2979 107.924 11.4893C108.038 11.6807 108.095 11.904 108.095 12.1592V12.1729C108.095 12.5192 107.963 12.8359 107.698 13.123C107.438 13.4102 106.962 13.7269 106.27 14.0732L106.933 14.7705C107.789 14.333 108.389 13.9092 108.73 13.499C109.077 13.0889 109.25 12.6331 109.25 12.1318V12.1182C109.25 11.6898 109.141 11.3092 108.922 10.9766C108.708 10.6439 108.411 10.3818 108.033 10.1904C107.655 9.99902 107.222 9.90332 106.734 9.90332C106.256 9.90332 105.825 9.99902 105.442 10.1904C105.064 10.3818 104.766 10.6439 104.547 10.9766C104.328 11.3092 104.219 11.6852 104.219 12.1045V12.1182C104.219 12.3551 104.262 12.5898 104.349 12.8223C104.435 13.0547 104.579 13.3122 104.779 13.5947C104.984 13.8727 105.258 14.1986 105.6 14.5723L110.556 20ZM106.454 20.1846C107.274 20.1846 107.981 20.0479 108.573 19.7744C109.17 19.501 109.662 19.1204 110.05 18.6328C110.442 18.1406 110.731 17.5573 110.918 16.8828C111.105 16.2083 111.198 15.4746 111.198 14.6816V14.5039H110.05V14.6748C110.05 15.2809 109.981 15.8529 109.845 16.3906C109.713 16.9238 109.51 17.391 109.236 17.792C109.045 18.07 108.819 18.3115 108.56 18.5166C108.3 18.7171 108.004 18.8721 107.671 18.9814C107.338 19.0908 106.969 19.1455 106.563 19.1455C106.126 19.1455 105.741 19.068 105.408 18.9131C105.076 18.7581 104.816 18.5417 104.629 18.2637C104.442 17.9811 104.349 17.6576 104.349 17.293V17.2793C104.349 16.8737 104.474 16.5023 104.725 16.165C104.98 15.8278 105.342 15.5475 105.812 15.3242L106.324 15.0781L105.641 14.333L105.101 14.5996C104.435 14.9277 103.938 15.3219 103.61 15.7822C103.282 16.238 103.118 16.7643 103.118 17.3613V17.375C103.118 17.9219 103.259 18.4072 103.542 18.8311C103.825 19.2549 104.216 19.5876 104.718 19.8291C105.224 20.0661 105.802 20.1846 106.454 20.1846ZM121.651 8.436V17.69H122.813V8.436H121.651ZM122.449 12.272V13.238H124.689V12.272H122.449ZM118.193 9.416V9.92C118.193 12.356 116.191 14.316 112.999 15.296L113.503 16.248C117.129 15.086 119.425 12.692 119.425 9.416H118.193ZM113.517 9.416V10.368H118.781V9.416H113.517ZM114.917 19.86V20.812H123.373V19.86H114.917ZM114.917 16.752V20.238H116.079V16.752H114.917ZM129.168 9.038V10.27C129.168 12.16 127.894 13.91 125.976 14.61L126.564 15.534C128.706 14.722 130.134 12.664 130.134 10.27V9.038H129.168ZM129.378 9.038V10.27C129.378 12.594 130.806 14.526 132.92 15.296L133.508 14.386C131.632 13.728 130.33 12.09 130.33 10.27V9.038H129.378ZM127.796 16.696V17.648H135.076V21.092H136.252V16.696H127.796ZM135.076 8.436V16.052H136.252V8.436H135.076Z" fill="black"/>
<path d="M143.206 16.472V21.246H145.11V16.472H143.206ZM147.686 16.472V21.246H149.59V16.472H147.686ZM140.56 15.492V16.99H152.306V15.492H140.56ZM146.398 8.716C143.64 8.716 141.722 9.85 141.722 11.628C141.722 13.378 143.64 14.512 146.398 14.512C149.17 14.512 151.088 13.378 151.088 11.628C151.088 9.85 149.17 8.716 146.398 8.716ZM146.398 10.2C148.106 10.2 149.17 10.704 149.17 11.628C149.17 12.538 148.106 13.042 146.398 13.042C144.704 13.042 143.626 12.538 143.626 11.628C143.626 10.704 144.704 10.2 146.398 10.2ZM153.425 14.96V16.416H165.157V14.96H153.425ZM158.353 13.574V15.492H160.215V13.574H158.353ZM154.881 12.762V14.176H163.911V12.762H154.881ZM154.881 8.604V13.56H156.729V10.018H163.813V8.604H154.881ZM156.211 10.704V12.062H163.519V10.704H156.211ZM159.277 16.99C156.421 16.99 154.769 17.746 154.769 19.118C154.769 20.504 156.421 21.246 159.277 21.246C162.119 21.246 163.771 20.504 163.771 19.118C163.771 17.746 162.119 16.99 159.277 16.99ZM159.277 18.362C161.069 18.362 161.895 18.586 161.895 19.118C161.895 19.664 161.069 19.888 159.277 19.888C157.471 19.888 156.645 19.664 156.645 19.118C156.645 18.586 157.471 18.362 159.277 18.362ZM175.25 8.282V21.246H177.126V8.282H175.25ZM171.428 9.626V9.962C171.428 13.434 170.084 15.786 166.36 17.578L167.326 19.062C171.932 16.836 173.276 13.588 173.276 9.626H171.428ZM167.046 9.626V11.096H172.31V9.626H167.046ZM187.541 8.296V17.984H189.403V8.296H187.541ZM188.871 12.244V13.77H191.125V12.244H188.871ZM179.197 9.64V11.096H186.827V9.64H179.197ZM183.019 11.558C181.143 11.558 179.827 12.58 179.827 14.064C179.827 15.548 181.143 16.556 183.019 16.556C184.881 16.556 186.197 15.548 186.197 14.064C186.197 12.58 184.881 11.558 183.019 11.558ZM183.019 12.972C183.845 12.972 184.419 13.364 184.419 14.064C184.419 14.764 183.845 15.142 183.019 15.142C182.193 15.142 181.619 14.764 181.619 14.064C181.619 13.364 182.193 12.972 183.019 12.972ZM182.081 8.268V10.354H183.943V8.268H182.081ZM181.045 19.538V21.022H189.865V19.538H181.045ZM181.045 17.256V20.182H182.907V17.256H181.045ZM198.009 10.83V11.236C198.009 12.622 197.309 13.952 195.671 14.554L196.525 15.926C198.555 15.17 199.395 13.308 199.395 11.236V10.83H198.009ZM198.387 10.83V11.236C198.387 13.224 199.227 15.016 201.271 15.716L202.097 14.344C200.473 13.784 199.759 12.538 199.759 11.236V10.83H198.387ZM196.035 9.738V11.194H201.719V9.738H196.035ZM198.009 8.408V10.41H199.759V8.408H198.009ZM204.967 8.296V16.234H206.731V8.296H204.967ZM203.413 11.53V13.014H205.471V11.53H203.413ZM202.265 8.492V16.178H204.001V8.492H202.265ZM197.827 16.78V18.264H204.883V21.246H206.731V16.78H197.827ZM217.468 8.296V15.618H219.344V8.296H217.468ZM210.72 16.206V21.106H219.344V16.206H210.72ZM217.51 17.662V19.636H212.54V17.662H217.51ZM212.288 8.884C210.272 8.884 208.76 10.172 208.76 11.992C208.76 13.798 210.272 15.1 212.288 15.1C214.304 15.1 215.802 13.798 215.802 11.992C215.802 10.172 214.304 8.884 212.288 8.884ZM212.288 10.424C213.268 10.424 213.982 10.998 213.982 11.992C213.982 12.972 213.268 13.546 212.288 13.546C211.308 13.546 210.58 12.972 210.58 11.992C210.58 10.998 211.308 10.424 212.288 10.424ZM230.809 8.282V21.246H232.573V8.282H230.809ZM226.539 12.706V14.218H228.681V12.706H226.539ZM228.191 8.492V20.658H229.927V8.492H228.191ZM223.739 10.396V11.726C223.739 13.938 223.081 16.262 221.177 17.452L222.283 18.824C224.341 17.536 225.139 14.638 225.139 11.726V10.396H223.739ZM224.159 10.396V11.726C224.159 14.582 224.915 17.298 226.973 18.516L228.065 17.158C226.189 16.066 225.545 13.882 225.545 11.726V10.396H224.159ZM221.667 9.584V11.082H227.449V9.584H221.667Z" fill="#00A000"/>
<g clip-path="url(#clip0_4694_57026)">
<path d="M16.7922 23.3325L19.7621 19.8224C23.0916 16.2421 23.0916 10.4372 19.7621 6.85691L19.5848 6.66624L15.8612 10.6703C12.9234 13.8294 13.0157 18.4941 15.8612 22.1105L16.7922 23.3325Z" fill="#68E46A"/>
<path d="M16.7917 23.333L21.2188 23.333C26.1089 23.333 30.073 19.241 30.073 14.1932L30.073 13.9244L25.6459 13.9244C20.7559 13.9244 16.7917 18.0164 16.7917 23.0642L16.7917 23.333Z" fill="#44B800"/>
<path fill-rule="evenodd" clip-rule="evenodd" d="M19.7621 19.8226L16.7923 23.3327L16.7917 23.332V23.0641C16.7917 19.2893 19.0086 16.0491 22.1716 14.6548C21.9182 16.5457 21.115 18.3678 19.7621 19.8226Z" fill="#348B00"/>
</g>
<rect x="0.5" y="0.5" width="245" height="29" rx="14.5" stroke="#3C3C43" stroke-opacity="0.18"/>
<defs>
<clipPath id="clip0_4694_57026">
<rect width="16.6667" height="16.6667" fill="white" transform="translate(13.6667 6.6665)"/>
</clipPath>
</defs>
</svg>
