<svg width="179" height="48" viewBox="0 0 179 48" fill="none" xmlns="http://www.w3.org/2000/svg">
<path d="M0.022953 9.00002L25.9619 9.03473L25.9504 17.9965C25.9478 20.0772 25.5783 21.7776 24.842 23.0975C24.1142 24.4262 23.1292 25.4091 21.8872 26.0463C20.6451 26.6836 19.26 27.0011 17.7317 26.9991C16.2034 26.9971 14.8148 26.6758 13.5659 26.0352C12.3171 25.4033 11.322 24.4263 10.5806 23.1044C9.84771 21.7824 9.48258 20.0897 9.48522 18.0263L9.49344 11.6028L12.2798 11.6065L12.2718 17.9264C12.2699 19.351 12.5091 20.4952 12.9893 21.3593C13.4695 22.2233 14.1189 22.8501 14.9374 23.2397C15.7644 23.638 16.6971 23.8378 17.7357 23.8392C18.7743 23.8406 19.7033 23.6432 20.5229 23.2472C21.3424 22.8598 21.9849 22.2303 22.4505 21.359C22.9244 20.4876 23.1623 19.331 23.1642 17.8892L23.1714 12.2427L0.0188425 12.2118L0.022953 9.00002Z" fill="#FF425C"/>
<path d="M71.977 8.99999L46.0381 9.0347L46.0496 17.9965C46.0522 20.0772 46.4217 21.7775 47.158 23.0975C47.8858 24.4261 48.8708 25.4091 50.1128 26.0463C51.3549 26.6835 52.74 27.0011 54.2683 26.9991C55.7966 26.997 57.1852 26.6757 58.4341 26.0352C59.6829 25.4032 60.678 24.4263 61.4194 23.1043C62.1523 21.7824 62.5174 20.0897 62.5148 18.0262L62.5066 11.6028L59.7202 11.6065L59.7282 17.9264C59.7301 19.3509 59.4909 20.4952 59.0107 21.3592C58.5305 22.2232 57.8811 22.8501 57.0626 23.2397C56.2356 23.6379 55.3029 23.8377 54.2643 23.8391C53.2257 23.8405 52.2967 23.6432 51.4771 23.2471C50.6576 22.8597 50.0151 22.2303 49.5495 21.3589C49.0756 20.4876 48.8377 19.331 48.8358 17.8891L48.8286 12.2427L71.9812 12.2117L71.977 8.99999Z" fill="#FF425C"/>
<path d="M39.0322 20V25.5426C39.0322 32.5 17.7631 47.1503 12.0099 35.7537L18.1841 36.9156C28.4494 35.5489 35.5293 30 35.0289 25.5426V20H39.0322Z" fill="#FF425C"/>
<path d="M35.0288 20V25.5426C35.0288 32.5 56.2979 47.1503 62.0511 35.7537L55.8769 36.9156C45.6117 35.5489 38.5317 30 39.0321 25.5426V20H35.0288Z" fill="#FF425C"/>
<path d="M80.5568 36V12.7273H88.8523C90.6629 12.7273 92.1629 13.0568 93.3523 13.7159C94.5417 14.375 95.4318 15.2765 96.0227 16.4205C96.6136 17.5568 96.9091 18.8371 96.9091 20.2614C96.9091 21.6932 96.6098 22.9811 96.0114 24.125C95.4205 25.2614 94.5265 26.1629 93.3295 26.8295C92.1402 27.4886 90.6439 27.8182 88.8409 27.8182H83.1364V24.8409H88.5227C89.6667 24.8409 90.5947 24.6439 91.3068 24.25C92.0189 23.8485 92.5417 23.303 92.875 22.6136C93.2083 21.9242 93.375 21.1402 93.375 20.2614C93.375 19.3826 93.2083 18.6023 92.875 17.9205C92.5417 17.2386 92.0152 16.7045 91.2955 16.3182C90.5833 15.9318 89.6439 15.7386 88.4773 15.7386H84.0682V36H80.5568ZM107.705 36.3523C105.985 36.3523 104.504 35.9848 103.262 35.25C102.027 34.5076 101.072 33.4659 100.398 32.125C99.7313 30.7765 99.398 29.197 99.398 27.3864C99.398 25.5985 99.7313 24.0227 100.398 22.6591C101.072 21.2955 102.012 20.2311 103.216 19.4659C104.428 18.7008 105.845 18.3182 107.466 18.3182C108.451 18.3182 109.406 18.4811 110.33 18.8068C111.254 19.1326 112.084 19.6439 112.818 20.3409C113.553 21.0379 114.133 21.9432 114.557 23.0568C114.981 24.1629 115.193 25.5076 115.193 27.0909V28.2955H101.318V25.75H111.864C111.864 24.8561 111.682 24.0644 111.318 23.375C110.955 22.678 110.443 22.1288 109.784 21.7273C109.133 21.3258 108.368 21.125 107.489 21.125C106.534 21.125 105.701 21.3598 104.989 21.8295C104.284 22.2917 103.739 22.8977 103.353 23.6477C102.974 24.3902 102.784 25.197 102.784 26.0682V28.0568C102.784 29.2235 102.989 30.2159 103.398 31.0341C103.815 31.8523 104.394 32.4773 105.137 32.9091C105.879 33.3333 106.746 33.5455 107.739 33.5455C108.383 33.5455 108.97 33.4545 109.5 33.2727C110.031 33.0833 110.489 32.803 110.875 32.4318C111.262 32.0606 111.557 31.6023 111.762 31.0568L114.978 31.6364C114.72 32.5833 114.258 33.4129 113.591 34.125C112.932 34.8295 112.103 35.3788 111.103 35.7727C110.11 36.1591 108.978 36.3523 107.705 36.3523ZM118.611 36V18.5455H121.895V21.3182H122.077C122.395 20.3788 122.956 19.6402 123.759 19.1023C124.57 18.5568 125.486 18.2841 126.509 18.2841C126.721 18.2841 126.971 18.2917 127.259 18.3068C127.555 18.322 127.786 18.3409 127.952 18.3636V21.6136C127.816 21.5758 127.573 21.5341 127.225 21.4886C126.876 21.4356 126.528 21.4091 126.18 21.4091C125.376 21.4091 124.661 21.5795 124.032 21.9205C123.411 22.2538 122.918 22.7197 122.555 23.3182C122.191 23.9091 122.009 24.5833 122.009 25.3409V36H118.611ZM130.813 36V12.7273H139.109C140.919 12.7273 142.419 13.0568 143.609 13.7159C144.798 14.375 145.688 15.2765 146.279 16.4205C146.87 17.5568 147.166 18.8371 147.166 20.2614C147.166 21.6932 146.866 22.9811 146.268 24.125C145.677 25.2614 144.783 26.1629 143.586 26.8295C142.397 27.4886 140.9 27.8182 139.097 27.8182H133.393V24.8409H138.779C139.923 24.8409 140.851 24.6439 141.563 24.25C142.275 23.8485 142.798 23.303 143.132 22.6136C143.465 21.9242 143.632 21.1402 143.632 20.2614C143.632 19.3826 143.465 18.6023 143.132 17.9205C142.798 17.2386 142.272 16.7045 141.552 16.3182C140.84 15.9318 139.9 15.7386 138.734 15.7386H134.325V36H130.813ZM157.961 36.3523C156.242 36.3523 154.761 35.9848 153.518 35.25C152.283 34.5076 151.329 33.4659 150.655 32.125C149.988 30.7765 149.655 29.197 149.655 27.3864C149.655 25.5985 149.988 24.0227 150.655 22.6591C151.329 21.2955 152.268 20.2311 153.473 19.4659C154.685 18.7008 156.101 18.3182 157.723 18.3182C158.708 18.3182 159.662 18.4811 160.586 18.8068C161.511 19.1326 162.34 19.6439 163.075 20.3409C163.81 21.0379 164.389 21.9432 164.814 23.0568C165.238 24.1629 165.45 25.5076 165.45 27.0909V28.2955H151.575V25.75H162.12C162.12 24.8561 161.939 24.0644 161.575 23.375C161.211 22.678 160.7 22.1288 160.041 21.7273C159.389 21.3258 158.624 21.125 157.745 21.125C156.791 21.125 155.958 21.3598 155.245 21.8295C154.541 22.2917 153.995 22.8977 153.609 23.6477C153.23 24.3902 153.041 25.197 153.041 26.0682V28.0568C153.041 29.2235 153.245 30.2159 153.655 31.0341C154.071 31.8523 154.651 32.4773 155.393 32.9091C156.136 33.3333 157.003 33.5455 157.995 33.5455C158.639 33.5455 159.226 33.4545 159.757 33.2727C160.287 33.0833 160.745 32.803 161.132 32.4318C161.518 32.0606 161.814 31.6023 162.018 31.0568L165.234 31.6364C164.976 32.5833 164.514 33.4129 163.848 34.125C163.189 34.8295 162.359 35.3788 161.359 35.7727C160.367 36.1591 159.234 36.3523 157.961 36.3523ZM177.016 18.5455V21.2727H167.481V18.5455H177.016ZM170.038 14.3636H173.436V30.875C173.436 31.5341 173.535 32.0303 173.731 32.3636C173.928 32.6894 174.182 32.9129 174.493 33.0341C174.811 33.1477 175.156 33.2045 175.527 33.2045C175.8 33.2045 176.038 33.1856 176.243 33.1477C176.447 33.1098 176.606 33.0795 176.72 33.0568L177.334 35.8636C177.137 35.9394 176.856 36.0152 176.493 36.0909C176.129 36.1742 175.675 36.2197 175.129 36.2273C174.235 36.2424 173.402 36.0833 172.629 35.75C171.856 35.4167 171.231 34.9015 170.754 34.2045C170.277 33.5076 170.038 32.6326 170.038 31.5795V14.3636Z" fill="#FF425C"/>
</svg>
